<svg version="1.1" viewBox="0.0 0.0 960.0 960.0" fill="none" stroke="none" stroke-linecap="square" stroke-miterlimit="10" xmlns:xlink="http://www.w3.org/1999/xlink" xmlns="http://www.w3.org/2000/svg"><clipPath id="p.0"><path d="m0 0l960.0 0l0 960.0l-960.0 0l0 -960.0z" clip-rule="nonzero"/></clipPath><g clip-path="url(#p.0)"><path fill="#000000" fill-opacity="0.0" d="m0 0l960.0 0l0 960.0l-960.0 0z" fill-rule="evenodd"/><defs><linearGradient id="p.1" gradientUnits="userSpaceOnUse" gradientTransform="matrix(30.984037513706344 0.0 0.0 30.984037513706344 0.0 0.0)" spreadMethod="pad" x1="30.983696026553247" y1="30.98403751557503" x2="30.98403751557503" y2="3.750535879125569E-9"><stop offset="0.0" stop-color="#000000"/><stop offset="1.0" stop-color="#737373"/></linearGradient></defs><path fill="url(#p.1)" d="m0 480.0l0 0c0 -265.09668 214.90332 -480.0 480.0 -480.0l0 0c127.303894 0 249.3938 50.571285 339.41125 140.58875c90.017456 90.017456 140.58875 212.10733 140.58875 339.41125l0 0c0 265.09668 -214.90332 480.0 -480.0 480.0l0 0c-265.09668 0 -480.0 -214.90332 -480.0 -480.0z" fill-rule="evenodd"/><path fill="#434343" d="m462.28467 464.17368l0 0c8.740875 -9.784576 23.758728 -10.630646 33.543304 -1.8897705l0 0c4.6987305 4.1975403 7.5375366 10.089691 7.8919373 16.38028c0.35440063 6.2905884 -1.804657 12.464325 -6.0021667 17.163025l0 0c-8.740875 9.784576 -23.758728 10.630646 -33.543304 1.8897705l0 0c-9.784576 -8.740875 -10.630646 -23.758728 -1.8897705 -33.543304z" fill-rule="evenodd"/><path stroke="#434343" stroke-width="1.0" stroke-linejoin="round" stroke-linecap="butt" d="m462.28467 464.17368l0 0c8.740875 -9.784576 23.758728 -10.630646 33.543304 -1.8897705l0 0c4.6987305 4.1975403 7.5375366 10.089691 7.8919373 16.38028c0.35440063 6.2905884 -1.804657 12.464325 -6.0021667 17.163025l0 0c-8.740875 9.784576 -23.758728 10.630646 -33.543304 1.8897705l0 0c-9.784576 -8.740875 -10.630646 -23.758728 -1.8897705 -33.543304z" fill-rule="evenodd"/><defs><linearGradient id="p.2" gradientUnits="userSpaceOnUse" gradientTransform="matrix(-16.82014201794847 16.83561593038599 -16.83561593038599 -16.82014201794847 0.0 0.0)" spreadMethod="pad" x1="1.0362438427721494" y1="-28.52465252595385" x2="1.0364286623302603" y2="-45.360268455325375"><stop offset="0.0" stop-color="#434343"/><stop offset="0.2" stop-color="#434343"/><stop offset="0.6" stop-color="#5b5b5b"/><stop offset="1.0" stop-color="#ffdf00"/></linearGradient></defs><path fill="url(#p.2)" d="m774.76575 751.8583l-22.823975 22.84491l0 0c-1.5133667 1.5147705 -3.566162 2.3660278 -5.706909 2.366516c-2.140686 4.8828125E-4 -4.1939087 -0.8498535 -5.708008 -2.3638916l-277.5983 -277.59833c-1.5258789E-4 -1.5258789E-4 -1.5258789E-4 -4.272461E-4 0 -5.79834E-4l34.236237 -34.26715l0 0c1.5258789E-4 -1.5258789E-4 3.9672852E-4 -1.5258789E-4 5.493164E-4 0l277.59778 277.5983l0 0c3.152832 3.152893 3.1539917 8.265869 0.0026245117 11.420227z" fill-rule="evenodd"/></g></svg>